<?xml version="1.0" encoding="iso-8859-1"?>
<!-- Uploaded to: SVG Repo, www.svgrepo.com, Generator: SVG Repo Mixer Tools -->
<svg height="800px" width="800px" version="1.1" id="Layer_1" xmlns="http://www.w3.org/2000/svg" xmlns:xlink="http://www.w3.org/1999/xlink" 
	 viewBox="0 0 512 512" xml:space="preserve">
<path style="fill:#BBDCE3;" d="M256.001,104.437L50.285,290.064h51.928v207.714h307.576V290.064h51.928L256.001,104.437z"/>
<path d="M360.634,304.242c-0.924,0-1.863-0.1-2.773-0.284s-1.806-0.455-2.66-0.811c-0.868-0.356-1.692-0.796-2.46-1.308
	c-0.782-0.511-1.508-1.108-2.162-1.762c-0.654-0.656-1.252-1.394-1.764-2.163c-0.512-0.782-0.953-1.607-1.308-2.459
	c-0.356-0.855-0.626-1.749-0.811-2.66c-0.185-0.924-0.284-1.85-0.284-2.788c0-0.924,0.1-1.865,0.284-2.773
	c0.185-0.912,0.455-1.808,0.811-2.66c0.356-0.852,0.796-1.678,1.308-2.46c0.512-0.768,1.109-1.508,1.764-2.162
	s1.38-1.252,2.162-1.764c0.768-0.511,1.593-0.953,2.46-1.308c0.853-0.356,1.749-0.624,2.66-0.811c1.835-0.37,3.712-0.37,5.561,0
	c0.896,0.186,1.792,0.455,2.66,0.811c0.853,0.356,1.678,0.798,2.446,1.308c0.782,0.512,1.508,1.109,2.162,1.764
	c0.654,0.654,1.252,1.392,1.778,2.162c0.512,0.784,0.953,1.609,1.308,2.46c0.356,0.852,0.626,1.748,0.811,2.66
	c0.185,0.91,0.27,1.849,0.27,2.773c0,0.937-0.085,1.863-0.27,2.788c-0.185,0.91-0.455,1.806-0.811,2.66
	c-0.356,0.853-0.796,1.678-1.308,2.459c-0.526,0.768-1.124,1.508-1.778,2.163c-0.654,0.654-1.38,1.252-2.162,1.762
	c-0.768,0.512-1.593,0.953-2.446,1.308c-0.868,0.356-1.764,0.626-2.66,0.811C362.497,304.142,361.558,304.242,360.634,304.242z"/>
<path style="fill:#FECC85;" d="M312.631,497.778h-113.26v-87.014c0-31.276,25.354-56.63,56.63-56.63l0,0
	c31.276,0,56.63,25.354,56.63,56.63V497.778z"/>
<path d="M471.246,279.505L270.223,98.113V73.552h30.885c7.855,0,14.222-6.369,14.222-14.222s-6.367-14.222-14.222-14.222h-30.885
	V14.222C270.223,6.369,263.856,0,256.001,0c-7.855,0-14.222,6.369-14.222,14.222v30.885h-30.885
	c-7.855,0-14.222,6.369-14.222,14.222s6.367,14.222,14.222,14.222h30.885v24.563L40.756,279.505
	c-4.369,3.941-5.86,10.169-3.748,15.663c2.112,5.493,7.39,9.118,13.275,9.118h37.706v193.492c0,7.854,6.367,14.222,14.222,14.222
	h97.158h113.26h97.158c7.855,0,14.222-6.369,14.222-14.222V304.286h37.706c5.885,0,11.163-3.625,13.275-9.118
	C477.104,289.675,475.615,283.447,471.246,279.505z M213.593,483.556v-72.792c0-23.384,19.025-42.408,42.408-42.408
	s42.408,19.024,42.408,42.408v72.792H213.593z M409.789,275.841c-7.855,0-14.222,6.369-14.222,14.222v193.492h-68.713v-72.792
	c0-39.067-31.784-70.852-70.852-70.852s-70.852,31.785-70.852,70.852v72.792h-68.713V304.233h200.203
	c7.855,0,14.222-6.369,14.222-14.222s-6.367-14.222-14.222-14.222H101.437c-0.353,0-0.698,0.028-1.045,0.053H87.275l168.725-152.247
	l168.725,152.247H409.789z"/>
</svg>